# 3D геометрия из программы построения кривых и поверхностей
# Метод: chaikin
# Разбиений: 3, Параметр t: 0.12
# Вершин: 42, Элементов: 1

o ChaikinCurve3D

v -9.885858 -1.970821 0.000000
v -9.555623 -2.804874 0.000000
v -9.061860 -3.555310 0.000000
v -8.404567 -4.222129 0.000000
v -7.583744 -4.805331 0.000000
v -6.599392 -5.304916 0.000000
v -5.451511 -5.720884 0.000000
v -4.140100 -6.053235 0.000000
v -2.665159 -6.301970 0.000000
v -1.026690 -6.467087 0.000000
v 0.488471 -6.494606 0.000000
v 1.880324 -6.384528 0.000000
v 3.148868 -6.136852 0.000000
v 4.294103 -5.751579 0.000000
v 5.316030 -5.228708 0.000000
v 6.214648 -4.568240 0.000000
v 6.989957 -3.770174 0.000000
v 7.641958 -2.834510 0.000000
v 7.948378 -1.938009 0.000000
v 7.909215 -1.080670 0.000000
v 7.524471 -0.262494 0.000000
v 6.794146 0.516520 0.000000
v 5.718238 1.256372 0.000000
v 4.296749 1.957061 0.000000
v 2.529679 2.618588 0.000000
v 0.417027 3.240952 0.000000
v -1.399791 3.688145 0.000000
v -2.920773 3.960164 0.000000
v -4.145921 4.057012 0.000000
v -5.075234 3.978687 0.000000
v -5.708712 3.725190 0.000000
v -6.046356 3.296521 0.000000
v -6.088164 2.692679 0.000000
v -5.834138 1.913665 0.000000
v -5.556826 1.192336 0.000000
v -5.256228 0.528692 0.000000
v -4.932344 -0.077266 0.000000
v -4.585175 -0.625540 0.000000
v -4.214720 -1.116128 0.000000
v -3.820979 -1.549031 0.000000
v -3.403953 -1.924249 0.000000
v -2.963640 -2.241782 0.000000

f 1 2 3 4 5 6 7 8 9 10 11 12 13 14 15 16 17 18 19 20 21 22 23 24 25 26 27 28 29 30 31 32 33 34 35 36 37 38 39 40 41 42
